<svg width="24" height="20" viewBox="0 0 24 20" fill="none" xmlns="http://www.w3.org/2000/svg">
<path fill-rule="evenodd" clip-rule="evenodd" d="M23.143 2.937C22.308 3.307 21.411 3.557 20.468 3.67C21.43 3.094 22.168 2.18 22.516 1.092C21.616 1.626 20.619 2.014 19.558 2.222C18.708 1.318 17.498 0.751999 16.158 0.751999C13.586 0.751999 11.5 2.838 11.5 5.412C11.5 5.776 11.542 6.13 11.62 6.472C7.74701 6.277 4.31601 4.422 2.01801 1.604C1.61801 2.294 1.38801 3.094 1.38801 3.946C1.38801 5.562 2.21101 6.989 3.46001 7.824C2.69601 7.799 1.97801 7.59 1.35001 7.241V7.301C1.35001 9.558 2.95501 11.441 5.08701 11.869C4.69501 11.975 4.28401 12.031 3.86001 12.031C3.56001 12.031 3.26701 12.003 2.98301 11.949C3.57601 13.799 5.29601 15.147 7.33501 15.183C5.74001 16.433 3.73101 17.178 1.54901 17.178C1.17301 17.178 0.802012 17.156 0.437012 17.113C2.49901 18.436 4.94701 19.206 7.57701 19.206C16.147 19.206 20.832 12.108 20.832 5.952C20.832 5.752 20.827 5.55 20.818 5.35C21.728 4.692 22.518 3.873 23.141 2.94L23.143 2.937Z" fill="black"/>
</svg>
